<?xml version="1.0" encoding="UTF-8"?>
<svg id="Capa_1" data-name="Capa 1" xmlns="http://www.w3.org/2000/svg" version="1.1" viewBox="0 0 2320 1158">
  <defs>
    <style>
      .cls-1 {
        fill: #000;
        fill-rule: evenodd;
        stroke-width: 0px;
      }
    </style>
  </defs>
  <path class="cls-1" d="M2320,137.1v1020.9H0V342.5c55-30.5,167-50.1,257.6-66h0s.2,0,.2,0c4.7-.8,9.4-1.6,14-2.5,136.1-24,287.4,6,358,24,70.6,18,398.3,150,428.6,184h0c16.6,18.6,51.3,57.7,84.3,98.1-17.3-62.7-35.1-128,12.6-173.1,23.6-22.2,49.6-45,75.6-67.6h0c90.7-79.1,179.9-157.1,156.4-208.4-29.2-63.7,153.2-95.8,288.3-119.5,4.8-.8,9.6-1.7,14.2-2.5,136.2-24,287.4,6,358,24,40.7,10.4,166.8,58.6,272.1,104.1Z"/>
</svg>